<?xml version="1.0" standalone="no"?>
<!DOCTYPE svg PUBLIC "-//W3C//DTD SVG 20010904//EN"
 "http://www.w3.org/TR/2001/REC-SVG-20010904/DTD/svg10.dtd">
<svg version="1.0" xmlns="http://www.w3.org/2000/svg"
 width="300.000000pt" height="300.000000pt" viewBox="0 0 300.000000 300.000000"
 preserveAspectRatio="xMidYMid meet">
<metadata>
Created by potrace 1.14, written by Peter Selinger 2001-2017
</metadata>
<g transform="translate(0.000000,300.000000) scale(0.100000,-0.100000)"
fill="#000000" stroke="none">
<path d="M0 1500 l0 -1500 1500 0 1500 0 0 1500 0 1500 -1500 0 -1500 0 0
-1500z m1732 1021 c289 -75 513 -243 667 -499 55 -92 94 -203 116 -331 15 -83
16 -155 6 -368 -1 -12 -6 -25 -12 -28 -5 -4 -7 -15 -4 -26 4 -11 2 -19 -5 -19
-7 0 -9 -8 -5 -20 3 -11 3 -20 -2 -20 -4 0 -9 -11 -9 -25 -2 -31 -38 -122 -75
-189 -26 -48 -59 -70 -59 -39 0 10 6 13 16 9 14 -5 15 -4 4 9 -7 8 -8 15 -3
15 9 0 56 93 53 105 -1 3 6 17 14 30 9 13 18 35 20 47 3 13 5 23 6 23 1 0 3 7
5 15 2 8 11 49 20 90 17 73 32 340 19 327 -4 -3 -8 -59 -9 -124 -3 -136 -26
-249 -82 -387 -19 -50 -39 -93 -42 -96 -3 -3 -16 -25 -29 -50 -52 -104 -221
-273 -334 -335 -71 -39 -58 -16 19 35 74 48 202 170 223 210 8 17 -7 7 -46
-30 -52 -49 -54 -50 -18 -10 99 112 189 277 225 415 26 103 38 301 23 404 -46
319 -244 592 -529 731 -162 80 -231 95 -420 95 -182 0 -254 -16 -401 -84 -208
-98 -380 -269 -473 -468 -13 -29 -29 -49 -34 -46 -6 4 -8 0 -4 -9 7 -21 -13
-89 -25 -82 -5 3 -6 -7 -3 -23 5 -22 4 -25 -5 -13 -9 12 -10 7 -5 -20 5 -27 4
-32 -5 -20 -9 12 -10 5 -6 -30 4 -33 3 -40 -4 -25 -6 14 -8 -2 -6 -55 2 -42 1
-55 -2 -30 l-6 45 -7 -60 c-5 -46 -6 -39 -3 30 2 50 11 115 19 145 8 30 12 63
9 74 -4 13 -2 16 6 11 8 -5 10 -2 6 11 -15 49 122 286 231 399 152 158 368
273 573 304 98 15 301 6 392 -18z m-282 -355 c0 -2 3 -12 7 -22 4 -12 3 -15
-5 -10 -13 8 -16 -12 -6 -38 5 -13 9 -14 20 -5 8 7 18 9 22 5 4 -4 -3 -15 -14
-24 -25 -20 -49 -62 -35 -62 15 0 7 -24 -17 -50 -26 -28 -27 -33 -6 -66 17
-25 17 -25 -8 -13 -27 12 -28 35 -1 74 7 11 13 30 13 43 0 12 7 33 15 45 12
20 12 28 -1 65 -14 43 -12 62 7 62 5 0 9 -2 9 -4z m159 -84 c-1 -34 -4 -45 -6
-27 l-5 30 -24 -45 c-22 -41 -24 -42 -21 -15 2 17 7 39 11 50 5 12 -4 7 -23
-15 -17 -19 -31 -32 -31 -28 0 14 84 117 92 112 4 -3 7 -31 7 -62z m71 -109
c19 -20 31 -34 25 -31 -6 4 -10 -19 -10 -60 -1 -38 -9 -91 -19 -122 -25 -73
-83 -190 -109 -217 -34 -38 -31 -18 7 35 46 63 76 131 92 207 21 95 18 147
-11 189 -31 46 -20 46 25 -1z m-170 -7 c0 -3 -4 -8 -10 -11 -5 -3 -10 -1 -10
4 0 6 5 11 10 11 6 0 10 -2 10 -4z m4 -55 c3 -5 -1 -14 -8 -20 -12 -10 -13 -8
-9 8 6 23 9 25 17 12z m-37 -37 c-3 -3 -12 -4 -19 -1 -8 3 -5 6 6 6 11 1 17
-2 13 -5z m255 -129 c-7 -38 -6 -40 23 -55 24 -12 30 -21 28 -45 -3 -42 -55
-139 -77 -143 -16 -3 -16 -2 3 17 28 28 61 95 61 125 0 26 -29 50 -46 38 -6
-4 -14 -16 -17 -27 -7 -20 -7 -20 8 -1 12 16 15 17 15 4 0 -16 -44 -51 -53
-42 -2 3 7 32 20 65 13 33 27 93 31 132 7 68 7 70 10 22 1 -27 -1 -68 -6 -90z
m-202 -34 c0 -5 -9 -7 -20 -4 -11 3 -20 7 -20 9 0 2 9 4 20 4 11 0 20 -4 20
-9z m-50 -5 c0 -2 -8 -10 -17 -17 -16 -13 -17 -12 -4 4 13 16 21 21 21 13z
m-33 -68 c-3 -7 -5 -2 -5 12 0 14 2 19 5 13 2 -7 2 -19 0 -25z m9 -106 c4 -18
8 -21 18 -13 7 6 16 8 19 4 10 -9 -22 -29 -84 -52 -77 -30 -96 -25 -23 5 l61
25 -3 47 c-3 44 0 40 12 -16z m204 -51 c0 -10 -55 -18 -85 -12 l-20 4 20 8
c28 11 85 11 85 0z m-356 -32 c11 -1 3 -5 -19 -8 -45 -8 -65 -4 -65 11 0 6 13
8 31 4 17 -3 41 -7 53 -7z m263 -3 c-17 -13 -292 -35 -303 -24 -2 3 57 9 132
13 75 4 146 11 158 15 30 12 33 11 13 -4z m-535 -157 c-23 -9 -23 -10 -20
-164 l3 -155 -25 0 -25 0 3 155 c3 154 3 155 -20 165 -18 7 -8 9 42 9 50 0 60
-2 42 -10z m183 -3 c-16 -7 -57 -38 -90 -68 l-59 -55 82 -96 c82 -96 82 -97
53 -97 -25 0 -41 12 -93 75 -34 41 -69 75 -78 75 -8 0 23 38 69 84 68 69 80
85 65 89 -11 3 4 5 31 5 50 1 50 1 20 -12z m258 -6 c53 -42 61 -163 17 -235
-21 -35 -93 -85 -121 -85 -8 0 1 8 20 18 54 27 74 63 79 138 5 73 -17 147 -48
164 -28 15 -66 12 -84 -6 -32 -32 -11 -142 29 -158 9 -3 28 -6 43 -6 44 0 9
-22 -37 -24 -103 -2 -135 140 -43 196 38 24 113 23 145 -2z m298 1 c18 -14 24
-29 24 -60 0 -52 -23 -82 -114 -151 l-74 -55 78 -3 c62 -2 81 1 96 14 18 16
19 16 19 -9 0 -51 -2 -52 -120 -49 -129 4 -136 11 -61 66 58 43 116 105 126
136 11 34 -3 88 -28 105 -23 16 -64 20 -84 7 -19 -12 -35 -64 -28 -92 4 -19 0
-16 -19 15 -13 22 -22 43 -20 47 3 5 22 17 42 28 50 26 132 27 163 1z m298 2
c-2 -29 -17 -71 -18 -50 -1 15 -12 17 -80 17 l-80 0 -4 -42 c-2 -31 -4 -24 -5
25 l-2 67 95 0 c84 0 95 -2 94 -17z m-28 -132 c32 -32 38 -79 17 -125 -12 -27
-56 -62 -66 -52 -3 3 0 6 6 6 19 0 33 62 22 99 -17 60 -59 89 -105 71 -33 -13
-32 -4 3 14 45 25 90 20 123 -13z m-141 -156 c11 -10 34 -21 52 -26 29 -7 27
-8 -16 -5 -32 3 -55 11 -69 25 -19 19 -20 23 -6 47 l14 28 3 -26 c2 -14 12
-34 22 -43z m470 -65 c0 -13 -32 -50 -40 -45 -4 3 -14 -3 -21 -13 -13 -15 -12
-16 4 -3 9 7 17 9 17 3 0 -12 -25 -34 -32 -27 -3 3 -11 -3 -19 -12 -13 -16
-12 -17 4 -4 9 7 17 10 17 5 0 -11 -142 -154 -153 -154 -5 0 -3 8 4 18 13 15
12 16 -4 3 -9 -8 -15 -16 -12 -19 7 -7 -15 -32 -27 -32 -6 0 -4 8 3 18 13 15
12 16 -3 3 -10 -7 -15 -17 -13 -22 8 -12 -42 -42 -56 -33 -8 4 -9 3 -5 -4 9
-15 -125 -82 -229 -115 -93 -29 -225 -50 -275 -44 -27 3 -23 4 20 6 46 3 51 4
30 12 -18 6 -9 7 30 4 53 -5 54 -4 30 10 -19 12 -21 15 -5 11 75 -19 78 -19
70 -6 -6 10 -2 11 19 6 20 -5 26 -4 20 5 -5 9 1 10 20 5 16 -4 25 -3 22 3 -3
5 6 12 22 16 15 3 65 24 111 46 46 21 88 36 94 32 5 -3 7 -1 4 4 -4 6 4 18 18
27 29 19 39 20 29 4 -4 -8 -3 -10 2 -5 5 5 9 12 9 16 0 4 27 30 60 58 61 52
110 101 160 163 15 19 31 35 36 35 4 0 11 4 16 9 5 5 3 6 -4 2 -8 -4 -13 -1
-13 8 0 9 8 14 20 13 11 -1 20 -4 20 -7z m-1031 -75 c0 -5 -4 -3 -9 5 -5 8 -9
22 -9 30 0 16 17 -16 18 -35z m-648 18 c13 -16 12 -17 -3 -4 -10 7 -18 15 -18
17 0 8 8 3 21 -13z m266 -30 c-3 -10 -5 -2 -5 17 0 19 2 27 5 18 2 -10 2 -26
0 -35z m51 16 c-3 -8 -7 -3 -11 10 -4 17 -3 21 5 13 5 -5 8 -16 6 -23z m82 -4
c0 -5 -5 -3 -10 5 -5 8 -10 20 -10 25 0 6 5 3 10 -5 5 -8 10 -19 10 -25z m34
-18 c7 -6 6 -7 -4 -4 -8 2 -16 16 -17 33 -1 25 0 26 4 4 3 -14 10 -29 17 -33z
m86 18 c0 -5 -5 -3 -10 5 -5 8 -10 20 -10 25 0 6 5 3 10 -5 5 -8 10 -19 10
-25z m28 10 c-3 -3 -9 2 -12 12 -6 14 -5 15 5 6 7 -7 10 -15 7 -18z m189 -22
c-3 -10 -5 -2 -5 17 0 19 2 27 5 18 2 -10 2 -26 0 -35z m117 22 c9 -14 15 -25
13 -25 -2 0 -14 11 -27 25 -13 14 -19 25 -13 25 6 0 18 -11 27 -25z m42 10
c-3 -8 2 -21 10 -30 9 -8 11 -15 5 -15 -14 0 -30 32 -24 48 3 6 7 12 10 12 3
0 3 -7 -1 -15z m154 -15 c0 -16 -4 -30 -8 -30 -5 0 -7 14 -4 30 2 17 6 30 8
30 2 0 4 -13 4 -30z m47 -17 c-3 -10 -5 -2 -5 17 0 19 2 27 5 18 2 -10 2 -26
0 -35z m40 18 c-1 -17 -5 -27 -9 -23 -7 7 0 52 8 52 2 0 2 -13 1 -29z m45 -16
c9 -20 9 -20 -6 -1 -9 11 -16 27 -15 35 0 14 1 14 6 1 3 -8 10 -24 15 -35z
m55 -2 c-3 -10 -5 -2 -5 17 0 19 2 27 5 18 2 -10 2 -26 0 -35z m27 32 c-4 -8
0 -23 7 -33 12 -16 12 -16 -5 0 -16 14 -17 48 -2 48 3 0 3 -7 0 -15z m63 -32
c-3 -10 -5 -2 -5 17 0 19 2 27 5 18 2 -10 2 -26 0 -35z m-985 12 c3 -13 1 -22
-3 -19 -9 5 -13 44 -5 44 2 0 6 -11 8 -25z m678 1 c0 -2 -9 -2 -20 1 -11 3
-20 9 -20 15 0 5 9 4 20 -2 11 -6 20 -12 20 -14z m-553 -18 c-3 -8 -6 -5 -6 6
-1 11 2 17 5 13 3 -3 4 -12 1 -19z m304 5 c13 -16 12 -17 -3 -4 -17 13 -22 21
-14 21 2 0 10 -8 17 -17z m176 -5 c-3 -8 -6 -5 -6 6 -1 11 2 17 5 13 3 -3 4
-12 1 -19z m-891 -30 l29 -33 -32 29 c-31 28 -38 36 -30 36 2 0 16 -15 33 -32z
m70 -70 l29 -33 -32 29 c-31 28 -38 36 -30 36 2 0 16 -15 33 -32z m1129 -138
c-3 -5 -12 -10 -18 -10 -7 0 -6 4 3 10 19 12 23 12 15 0z"/>
<path d="M2110 2316 c0 -2 8 -10 18 -17 15 -13 16 -12 3 4 -13 16 -21 21 -21
13z"/>
<path d="M1582 2118 c-16 -16 -15 -28 3 -28 8 0 15 9 15 20 0 23 -2 24 -18 8z"/>
<path d="M2169 723 c-13 -16 -12 -17 4 -4 16 13 21 21 13 21 -2 0 -10 -8 -17
-17z"/>
</g>
</svg>
